<svg width="161" height="69" viewBox="0 0 161 69" fill="none" xmlns="http://www.w3.org/2000/svg">
<g filter="url(#filter0_d_6182_11366)">
<rect x="4" width="137" height="61" rx="30.5" fill="#F8FBFF"/>
<rect x="4.5" y="0.5" width="136" height="60" rx="30" stroke="#0066CC"/>
</g>
<g filter="url(#filter1_d_6182_11366)">
<circle cx="34.5" cy="30.5" r="27.5" fill="url(#paint0_linear_6182_11366)"/>
</g>
<path d="M32.1071 23.448C32.7051 21.698 35.1231 21.645 35.8321 23.289L35.8921 23.449L36.6991 25.809C36.884 26.3502 37.1829 26.8455 37.5755 27.2614C37.9682 27.6773 38.4454 28.0042 38.9751 28.22L39.1921 28.301L41.5521 29.107C43.3021 29.705 43.3551 32.123 41.7121 32.832L41.5521 32.892L39.1921 33.699C38.6507 33.8838 38.1552 34.1826 37.7391 34.5753C37.323 34.9679 36.996 35.4452 36.7801 35.975L36.6991 36.191L35.8931 38.552C35.2951 40.302 32.8771 40.355 32.1691 38.712L32.1071 38.552L31.3011 36.192C31.1163 35.6506 30.8175 35.1551 30.4248 34.739C30.0322 34.3229 29.5549 33.9959 29.0251 33.78L28.8091 33.699L26.4491 32.893C24.6981 32.295 24.6451 29.877 26.2891 29.169L26.4491 29.107L28.8091 28.301C29.3503 28.1161 29.8456 27.8172 30.2615 27.4246C30.6774 27.0319 31.0043 26.5547 31.2201 26.025L31.3011 25.809L32.1071 23.448ZM34.0001 24.094L33.1941 26.454C32.9125 27.2793 32.4544 28.0333 31.8516 28.6635C31.2489 29.2937 30.5161 29.7849 29.7041 30.103L29.4541 30.194L27.0941 31L29.4541 31.806C30.2794 32.0876 31.0334 32.5457 31.6636 33.1485C32.2938 33.7512 32.785 34.4841 33.1031 35.296L33.1941 35.546L34.0001 37.906L34.8061 35.546C35.0877 34.7207 35.5458 33.9667 36.1486 33.3365C36.7513 32.7063 37.4842 32.2151 38.2961 31.897L38.5461 31.807L40.9061 31L38.5461 30.194C37.7208 29.9124 36.9668 29.4543 36.3366 28.8515C35.7064 28.2488 35.2152 27.5159 34.8971 26.704L34.8071 26.454L34.0001 24.094ZM42.0001 20C42.1872 20 42.3705 20.0525 42.5293 20.1515C42.688 20.2505 42.8158 20.392 42.8981 20.56L42.9461 20.677L43.2961 21.703L44.3231 22.053C44.5106 22.1167 44.6749 22.2346 44.7953 22.3918C44.9157 22.549 44.9867 22.7384 44.9994 22.936C45.012 23.1336 44.9657 23.3305 44.8663 23.5018C44.7669 23.673 44.6189 23.8109 44.4411 23.898L44.3231 23.946L43.2971 24.296L42.9471 25.323C42.8833 25.5104 42.7653 25.6747 42.608 25.795C42.4508 25.9153 42.2613 25.9862 42.0637 25.9987C41.8662 26.0113 41.6693 25.9648 41.4981 25.8654C41.3269 25.7659 41.1891 25.6179 41.1021 25.44L41.0541 25.323L40.7041 24.297L39.6771 23.947C39.4896 23.8833 39.3253 23.7654 39.2049 23.6082C39.0845 23.451 39.0135 23.2616 39.0008 23.064C38.9882 22.8664 39.0345 22.6695 39.1339 22.4982C39.2333 22.327 39.3813 22.1891 39.5591 22.102L39.6771 22.054L40.7031 21.704L41.0531 20.677C41.1205 20.4794 41.2481 20.3079 41.4179 20.1865C41.5878 20.0651 41.7913 19.9999 42.0001 20Z" fill="white"/>
<path d="M71.3118 36H69.343L72.9276 25.8182H75.2045L78.794 36H76.8253L74.1058 27.9062H74.0263L71.3118 36ZM71.3764 32.0078H76.7457V33.4893H71.3764V32.0078ZM85.968 30.3821L84.3274 30.5611C84.281 30.3954 84.1998 30.2396 84.0838 30.0938C83.9711 29.9479 83.8187 29.8303 83.6264 29.7408C83.4342 29.6513 83.1989 29.6065 82.9205 29.6065C82.5459 29.6065 82.2311 29.6877 81.9759 29.8501C81.724 30.0125 81.5997 30.223 81.603 30.4815C81.5997 30.7036 81.6809 30.8842 81.8466 31.0234C82.0156 31.1626 82.294 31.277 82.6818 31.3665L83.9844 31.6449C84.7069 31.8007 85.2438 32.0476 85.5952 32.3857C85.9498 32.7237 86.1288 33.1662 86.1321 33.7131C86.1288 34.1937 85.9879 34.6179 85.7095 34.9858C85.4344 35.3504 85.0516 35.6354 84.5611 35.8409C84.0705 36.0464 83.5071 36.1491 82.8707 36.1491C81.9361 36.1491 81.1837 35.9536 80.6136 35.5625C80.0436 35.1681 79.7038 34.6196 79.5945 33.9169L81.3494 33.7479C81.429 34.0926 81.598 34.3527 81.8565 34.5284C82.1151 34.7041 82.4515 34.7919 82.8658 34.7919C83.2933 34.7919 83.6364 34.7041 83.8949 34.5284C84.1567 34.3527 84.2876 34.1357 84.2876 33.8771C84.2876 33.6584 84.2031 33.4777 84.0341 33.3352C83.8684 33.1927 83.6098 33.0833 83.2585 33.0071L81.956 32.7337C81.2235 32.5812 80.6816 32.3243 80.3303 31.9631C79.9789 31.5985 79.8049 31.1378 79.8082 30.581C79.8049 30.1103 79.9325 29.7027 80.1911 29.358C80.4529 29.0099 80.8158 28.7415 81.2798 28.5526C81.7472 28.3603 82.2857 28.2642 82.8956 28.2642C83.7905 28.2642 84.4948 28.4548 85.0085 28.8359C85.5256 29.2171 85.8454 29.7325 85.968 30.3821ZM89.2567 33.6037L89.2518 31.4311H89.5401L92.2844 28.3636H94.3874L91.0117 32.1222H90.6388L89.2567 33.6037ZM87.6161 36V25.8182H89.4158V36H87.6161ZM92.4087 36L89.9229 32.5249L91.136 31.2571L94.5614 36H92.4087ZM100.983 25.8182V36H99.139V25.8182H100.983ZM109.722 28.3636L107.003 36H105.014L102.295 28.3636H104.214L105.969 34.0362H106.048L107.808 28.3636H109.722ZM112.086 38.8636C111.841 38.8636 111.614 38.8438 111.405 38.804C111.2 38.7675 111.036 38.7244 110.913 38.6747L111.331 37.2727C111.592 37.349 111.826 37.3854 112.032 37.3821C112.237 37.3788 112.418 37.3142 112.574 37.1882C112.733 37.0656 112.867 36.8601 112.976 36.5717L113.13 36.1591L110.361 28.3636H112.27L114.03 34.1307H114.11L115.875 28.3636H117.789L114.731 36.9247C114.589 37.3291 114.4 37.6754 114.164 37.9638C113.929 38.2554 113.641 38.4775 113.299 38.63C112.961 38.7857 112.557 38.8636 112.086 38.8636Z" fill="#1A2332"/>
<defs>
<filter id="filter0_d_6182_11366" x="0" y="0" width="145" height="69" filterUnits="userSpaceOnUse" color-interpolation-filters="sRGB">
<feFlood flood-opacity="0" result="BackgroundImageFix"/>
<feColorMatrix in="SourceAlpha" type="matrix" values="0 0 0 0 0 0 0 0 0 0 0 0 0 0 0 0 0 0 127 0" result="hardAlpha"/>
<feOffset dy="4"/>
<feGaussianBlur stdDeviation="2"/>
<feComposite in2="hardAlpha" operator="out"/>
<feColorMatrix type="matrix" values="0 0 0 0 0 0 0 0 0 0 0 0 0 0 0 0 0 0 0.25 0"/>
<feBlend mode="normal" in2="BackgroundImageFix" result="effect1_dropShadow_6182_11366"/>
<feBlend mode="normal" in="SourceGraphic" in2="effect1_dropShadow_6182_11366" result="shape"/>
</filter>
<filter id="filter1_d_6182_11366" x="3" y="3" width="63" height="63" filterUnits="userSpaceOnUse" color-interpolation-filters="sRGB">
<feFlood flood-opacity="0" result="BackgroundImageFix"/>
<feColorMatrix in="SourceAlpha" type="matrix" values="0 0 0 0 0 0 0 0 0 0 0 0 0 0 0 0 0 0 127 0" result="hardAlpha"/>
<feOffset dy="4"/>
<feGaussianBlur stdDeviation="2"/>
<feComposite in2="hardAlpha" operator="out"/>
<feColorMatrix type="matrix" values="0 0 0 0 0 0 0 0 0 0 0 0 0 0 0 0 0 0 0.25 0"/>
<feBlend mode="normal" in2="BackgroundImageFix" result="effect1_dropShadow_6182_11366"/>
<feBlend mode="normal" in="SourceGraphic" in2="effect1_dropShadow_6182_11366" result="shape"/>
</filter>
<linearGradient id="paint0_linear_6182_11366" x1="34.5" y1="3" x2="34.5" y2="58" gradientUnits="userSpaceOnUse">
<stop offset="0.0913462" stop-color="#3B91E7"/>
<stop offset="0.197115" stop-color="#1D78D3"/>
<stop offset="0.322115" stop-color="#0060BF"/>
<stop offset="0.432692" stop-color="#0059B3"/>
<stop offset="0.600962" stop-color="#0053A6"/>
<stop offset="0.778846" stop-color="#004D99"/>
<stop offset="1" stop-color="#003366"/>
</linearGradient>
</defs>
</svg>
