<svg width="63" height="63" viewBox="0 0 63 63" fill="none" xmlns="http://www.w3.org/2000/svg">
<g filter="url(#filter0_d_6175_11349)">
<circle cx="31.5" cy="27.5" r="27.5" fill="url(#paint0_linear_6175_11349)"/>
</g>
<path d="M29.1071 20.448C29.7051 18.698 32.1231 18.645 32.8321 20.289L32.8921 20.449L33.6991 22.809C33.884 23.3502 34.1829 23.8455 34.5755 24.2614C34.9682 24.6773 35.4454 25.0042 35.9751 25.22L36.1921 25.301L38.5521 26.107C40.3021 26.705 40.3551 29.123 38.7121 29.832L38.5521 29.892L36.1921 30.699C35.6507 30.8838 35.1552 31.1826 34.7391 31.5753C34.323 31.9679 33.996 32.4452 33.7801 32.975L33.6991 33.191L32.8931 35.552C32.2951 37.302 29.8771 37.355 29.1691 35.712L29.1071 35.552L28.3011 33.192C28.1163 32.6506 27.8175 32.1551 27.4248 31.739C27.0322 31.3229 26.5549 30.9959 26.0251 30.78L25.8091 30.699L23.4491 29.893C21.6981 29.295 21.6451 26.877 23.2891 26.169L23.4491 26.107L25.8091 25.301C26.3503 25.1161 26.8456 24.8172 27.2615 24.4246C27.6774 24.0319 28.0043 23.5547 28.2201 23.025L28.3011 22.809L29.1071 20.448ZM31.0001 21.094L30.1941 23.454C29.9125 24.2793 29.4544 25.0333 28.8516 25.6635C28.2489 26.2937 27.5161 26.7849 26.7041 27.103L26.4541 27.194L24.0941 28L26.4541 28.806C27.2794 29.0876 28.0334 29.5457 28.6636 30.1485C29.2938 30.7512 29.785 31.4841 30.1031 32.296L30.1941 32.546L31.0001 34.906L31.8061 32.546C32.0877 31.7207 32.5458 30.9667 33.1486 30.3365C33.7513 29.7063 34.4842 29.2151 35.2961 28.897L35.5461 28.807L37.9061 28L35.5461 27.194C34.7208 26.9124 33.9668 26.4543 33.3366 25.8515C32.7064 25.2488 32.2152 24.5159 31.8971 23.704L31.8071 23.454L31.0001 21.094ZM39.0001 17C39.1872 17 39.3705 17.0525 39.5293 17.1515C39.688 17.2505 39.8158 17.392 39.8981 17.56L39.9461 17.677L40.2961 18.703L41.3231 19.053C41.5106 19.1167 41.6749 19.2346 41.7953 19.3918C41.9157 19.549 41.9867 19.7384 41.9994 19.936C42.012 20.1336 41.9657 20.3305 41.8663 20.5018C41.7669 20.673 41.6189 20.8109 41.4411 20.898L41.3231 20.946L40.2971 21.296L39.9471 22.323C39.8833 22.5104 39.7653 22.6747 39.608 22.795C39.4508 22.9153 39.2613 22.9862 39.0637 22.9987C38.8662 23.0113 38.6693 22.9648 38.4981 22.8654C38.3269 22.7659 38.1891 22.6179 38.1021 22.44L38.0541 22.323L37.7041 21.297L36.6771 20.947C36.4896 20.8833 36.3253 20.7654 36.2049 20.6082C36.0845 20.451 36.0135 20.2616 36.0008 20.064C35.9882 19.8664 36.0345 19.6695 36.1339 19.4982C36.2333 19.327 36.3813 19.1891 36.5591 19.102L36.6771 19.054L37.7031 18.704L38.0531 17.677C38.1205 17.4794 38.2481 17.3079 38.4179 17.1865C38.5878 17.0651 38.7913 16.9999 39.0001 17Z" fill="white"/>
<defs>
<filter id="filter0_d_6175_11349" x="0" y="0" width="63" height="63" filterUnits="userSpaceOnUse" color-interpolation-filters="sRGB">
<feFlood flood-opacity="0" result="BackgroundImageFix"/>
<feColorMatrix in="SourceAlpha" type="matrix" values="0 0 0 0 0 0 0 0 0 0 0 0 0 0 0 0 0 0 127 0" result="hardAlpha"/>
<feOffset dy="4"/>
<feGaussianBlur stdDeviation="2"/>
<feComposite in2="hardAlpha" operator="out"/>
<feColorMatrix type="matrix" values="0 0 0 0 0 0 0 0 0 0 0 0 0 0 0 0 0 0 0.25 0"/>
<feBlend mode="normal" in2="BackgroundImageFix" result="effect1_dropShadow_6175_11349"/>
<feBlend mode="normal" in="SourceGraphic" in2="effect1_dropShadow_6175_11349" result="shape"/>
</filter>
<linearGradient id="paint0_linear_6175_11349" x1="31.5" y1="0" x2="31.5" y2="55" gradientUnits="userSpaceOnUse">
<stop offset="0.0913462" stop-color="#3B91E7"/>
<stop offset="0.197115" stop-color="#1D78D3"/>
<stop offset="0.322115" stop-color="#0060BF"/>
<stop offset="0.432692" stop-color="#0059B3"/>
<stop offset="0.600962" stop-color="#0053A6"/>
<stop offset="0.778846" stop-color="#004D99"/>
<stop offset="1" stop-color="#003366"/>
</linearGradient>
</defs>
</svg>
