<svg width="28" height="28" viewBox="0 0 28 28" fill="none" xmlns="http://www.w3.org/2000/svg">
<path d="M4.54224 20.4397C4.54224 19.235 5.02079 18.0797 5.87262 17.2278C6.72444 16.376 7.87977 15.8975 9.08444 15.8975H18.1688C19.3735 15.8975 20.5288 16.376 21.3807 17.2278C22.2325 18.0797 22.711 19.235 22.711 20.4397C22.711 21.042 22.4718 21.6197 22.0458 22.0456C21.6199 22.4715 21.0423 22.7108 20.4399 22.7108H6.81334C6.211 22.7108 5.63334 22.4715 5.20743 22.0456C4.78151 21.6197 4.54224 21.042 4.54224 20.4397Z" stroke="#820000" stroke-width="1.5" stroke-linejoin="round"/>
<path d="M13.6266 11.3553C15.5081 11.3553 17.0333 9.83008 17.0333 7.94864C17.0333 6.0672 15.5081 4.54199 13.6266 4.54199C11.7452 4.54199 10.22 6.0672 10.22 7.94864C10.22 9.83008 11.7452 11.3553 13.6266 11.3553Z" stroke="#820000" stroke-width="1.5"/>
</svg>
