<svg width="28" height="28" viewBox="0 0 28 28" fill="none" xmlns="http://www.w3.org/2000/svg">
<path d="M3.69055 7.38096C3.69055 7.15508 3.78028 6.93846 3.94 6.77874C4.09972 6.61903 4.31634 6.5293 4.54221 6.5293H5.67776C5.90364 6.5293 6.12026 6.61903 6.27998 6.77874C6.4397 6.93846 6.52943 7.15508 6.52943 7.38096C6.52943 7.60683 6.4397 7.82346 6.27998 7.98318C6.12026 8.14289 5.90364 8.23262 5.67776 8.23262H4.54221C4.31634 8.23262 4.09972 8.14289 3.94 7.98318C3.78028 7.82346 3.69055 7.60683 3.69055 7.38096ZM8.23275 7.38096C8.23275 7.15508 8.32248 6.93846 8.4822 6.77874C8.64192 6.61903 8.85854 6.5293 9.08441 6.5293H22.711C22.9369 6.5293 23.1535 6.61903 23.3132 6.77874C23.4729 6.93846 23.5627 7.15508 23.5627 7.38096C23.5627 7.60683 23.4729 7.82346 23.3132 7.98318C23.1535 8.14289 22.9369 8.23262 22.711 8.23262H9.08441C8.85854 8.23262 8.64192 8.14289 8.4822 7.98318C8.32248 7.82346 8.23275 7.60683 8.23275 7.38096ZM3.69055 13.6265C3.69055 13.4006 3.78028 13.184 3.94 13.0243C4.09972 12.8646 4.31634 12.7748 4.54221 12.7748H5.67776C5.90364 12.7748 6.12026 12.8646 6.27998 13.0243C6.4397 13.184 6.52943 13.4006 6.52943 13.6265C6.52943 13.8524 6.4397 14.069 6.27998 14.2287C6.12026 14.3884 5.90364 14.4781 5.67776 14.4781H4.54221C4.31634 14.4781 4.09972 14.3884 3.94 14.2287C3.78028 14.069 3.69055 13.8524 3.69055 13.6265ZM8.23275 13.6265C8.23275 13.4006 8.32248 13.184 8.4822 13.0243C8.64192 12.8646 8.85854 12.7748 9.08441 12.7748H22.711C22.9369 12.7748 23.1535 12.8646 23.3132 13.0243C23.4729 13.184 23.5627 13.4006 23.5627 13.6265C23.5627 13.8524 23.4729 14.069 23.3132 14.2287C23.1535 14.3884 22.9369 14.4781 22.711 14.4781H9.08441C8.85854 14.4781 8.64192 14.3884 8.4822 14.2287C8.32248 14.069 8.23275 13.8524 8.23275 13.6265ZM3.69055 19.872C3.69055 19.6461 3.78028 19.4295 3.94 19.2698C4.09972 19.1101 4.31634 19.0203 4.54221 19.0203H5.67776C5.90364 19.0203 6.12026 19.1101 6.27998 19.2698C6.4397 19.4295 6.52943 19.6461 6.52943 19.872C6.52943 20.0979 6.4397 20.3145 6.27998 20.4742C6.12026 20.6339 5.90364 20.7237 5.67776 20.7237H4.54221C4.31634 20.7237 4.09972 20.6339 3.94 20.4742C3.78028 20.3145 3.69055 20.0979 3.69055 19.872ZM8.23275 19.872C8.23275 19.6461 8.32248 19.4295 8.4822 19.2698C8.64192 19.1101 8.85854 19.0203 9.08441 19.0203H22.711C22.9369 19.0203 23.1535 19.1101 23.3132 19.2698C23.4729 19.4295 23.5627 19.6461 23.5627 19.872C23.5627 20.0979 23.4729 20.3145 23.3132 20.4742C23.1535 20.6339 22.9369 20.7237 22.711 20.7237H9.08441C8.85854 20.7237 8.64192 20.6339 8.4822 20.4742C8.32248 20.3145 8.23275 20.0979 8.23275 19.872Z" fill="#5C6C7D"/>
</svg>
