<svg width="20" height="15" viewBox="0 0 20 15" fill="none" xmlns="http://www.w3.org/2000/svg">
<path d="M0 0.851663C0 0.625788 0.0897284 0.409164 0.249446 0.249446C0.409164 0.0897284 0.625788 0 0.851663 0H1.98721C2.21309 0 2.42971 0.0897284 2.58943 0.249446C2.74915 0.409164 2.83888 0.625788 2.83888 0.851663C2.83888 1.07754 2.74915 1.29416 2.58943 1.45388C2.42971 1.6136 2.21309 1.70333 1.98721 1.70333H0.851663C0.625788 1.70333 0.409164 1.6136 0.249446 1.45388C0.0897284 1.29416 0 1.07754 0 0.851663ZM4.5422 0.851663C4.5422 0.625788 4.63193 0.409164 4.79165 0.249446C4.95136 0.0897284 5.16799 0 5.39386 0H19.0205C19.2463 0 19.463 0.0897284 19.6227 0.249446C19.7824 0.409164 19.8721 0.625788 19.8721 0.851663C19.8721 1.07754 19.7824 1.29416 19.6227 1.45388C19.463 1.6136 19.2463 1.70333 19.0205 1.70333H5.39386C5.16799 1.70333 4.95136 1.6136 4.79165 1.45388C4.63193 1.29416 4.5422 1.07754 4.5422 0.851663ZM0 7.09719C0 6.87131 0.0897284 6.65469 0.249446 6.49497C0.409164 6.33525 0.625788 6.24553 0.851663 6.24553H1.98721C2.21309 6.24553 2.42971 6.33525 2.58943 6.49497C2.74915 6.65469 2.83888 6.87131 2.83888 7.09719C2.83888 7.32306 2.74915 7.53969 2.58943 7.6994C2.42971 7.85912 2.21309 7.94885 1.98721 7.94885H0.851663C0.625788 7.94885 0.409164 7.85912 0.249446 7.6994C0.0897284 7.53969 0 7.32306 0 7.09719ZM4.5422 7.09719C4.5422 6.87131 4.63193 6.65469 4.79165 6.49497C4.95136 6.33525 5.16799 6.24553 5.39386 6.24553H19.0205C19.2463 6.24553 19.463 6.33525 19.6227 6.49497C19.7824 6.65469 19.8721 6.87131 19.8721 7.09719C19.8721 7.32306 19.7824 7.53969 19.6227 7.6994C19.463 7.85912 19.2463 7.94885 19.0205 7.94885H5.39386C5.16799 7.94885 4.95136 7.85912 4.79165 7.6994C4.63193 7.53969 4.5422 7.32306 4.5422 7.09719ZM0 13.3427C0 13.1168 0.0897284 12.9002 0.249446 12.7405C0.409164 12.5808 0.625788 12.4911 0.851663 12.4911H1.98721C2.21309 12.4911 2.42971 12.5808 2.58943 12.7405C2.74915 12.9002 2.83888 13.1168 2.83888 13.3427C2.83888 13.5686 2.74915 13.7852 2.58943 13.9449C2.42971 14.1046 2.21309 14.1944 1.98721 14.1944H0.851663C0.625788 14.1944 0.409164 14.1046 0.249446 13.9449C0.0897284 13.7852 0 13.5686 0 13.3427ZM4.5422 13.3427C4.5422 13.1168 4.63193 12.9002 4.79165 12.7405C4.95136 12.5808 5.16799 12.4911 5.39386 12.4911H19.0205C19.2463 12.4911 19.463 12.5808 19.6227 12.7405C19.7824 12.9002 19.8721 13.1168 19.8721 13.3427C19.8721 13.5686 19.7824 13.7852 19.6227 13.9449C19.463 14.1046 19.2463 14.1944 19.0205 14.1944H5.39386C5.16799 14.1944 4.95136 14.1046 4.79165 13.9449C4.63193 13.7852 4.5422 13.5686 4.5422 13.3427Z" fill="#820000"/>
</svg>
