<svg width="28" height="28" viewBox="0 0 28 28" fill="none" xmlns="http://www.w3.org/2000/svg">
<path d="M9.53866 3.40625H6.35912C5.87725 3.40625 5.41512 3.59767 5.07439 3.9384C4.73366 4.27913 4.54224 4.74126 4.54224 5.22313V10.6738C4.54224 10.9124 4.58923 11.1486 4.68054 11.3691C4.77184 11.5895 4.90568 11.7898 5.07439 11.9585C5.2431 12.1272 5.44339 12.261 5.66383 12.3523C5.88426 12.4437 6.12052 12.4906 6.35912 12.4906H9.53866C9.77725 12.4906 10.0135 12.4437 10.2339 12.3523C10.4544 12.261 10.6547 12.1272 10.8234 11.9585C10.9921 11.7898 11.1259 11.5895 11.2172 11.3691C11.3085 11.1486 11.3555 10.9124 11.3555 10.6738V5.22313C11.3555 4.74126 11.1641 4.27913 10.8234 3.9384C10.4827 3.59767 10.0205 3.40625 9.53866 3.40625ZM9.53866 17.0328H6.35912C5.87725 17.0328 5.41512 17.2243 5.07439 17.565C4.73366 17.9057 4.54224 18.3679 4.54224 18.8497V22.0293C4.54224 22.5111 4.73366 22.9733 5.07439 23.314C5.41512 23.6547 5.87725 23.8461 6.35912 23.8461H9.53866C10.0205 23.8461 10.4827 23.6547 10.8234 23.314C11.1641 22.9733 11.3555 22.5111 11.3555 22.0293V18.8497C11.3555 18.3679 11.1641 17.9057 10.8234 17.565C10.4827 17.2243 10.0205 17.0328 9.53866 17.0328ZM20.8942 3.40625H17.7146C17.2327 3.40625 16.7706 3.59767 16.4299 3.9384C16.0892 4.27913 15.8977 4.74126 15.8977 5.22313V8.40267C15.8977 8.88454 16.0892 9.34667 16.4299 9.6874C16.7706 10.0281 17.2327 10.2195 17.7146 10.2195H20.8942C21.376 10.2195 21.8382 10.0281 22.1789 9.6874C22.5196 9.34667 22.711 8.88454 22.711 8.40267V5.22313C22.711 4.74126 22.5196 4.27913 22.1789 3.9384C21.8382 3.59767 21.376 3.40625 20.8942 3.40625ZM20.8942 14.7617H17.7146C17.2327 14.7617 16.7706 14.9532 16.4299 15.2939C16.0892 15.6346 15.8977 16.0968 15.8977 16.5786V22.0293C15.8977 22.5111 16.0892 22.9733 16.4299 23.314C16.7706 23.6547 17.2327 23.8461 17.7146 23.8461H20.8942C21.376 23.8461 21.8382 23.6547 22.1789 23.314C22.5196 22.9733 22.711 22.5111 22.711 22.0293V16.5786C22.711 16.0968 22.5196 15.6346 22.1789 15.2939C21.8382 14.9532 21.376 14.7617 20.8942 14.7617Z" stroke="#5C6C7D" stroke-width="1.5" stroke-miterlimit="10" stroke-linejoin="round"/>
</svg>
