<svg width="28" height="28" viewBox="0 0 28 28" fill="none" xmlns="http://www.w3.org/2000/svg">
<path d="M21.8876 7.92026L15.926 1.95862C15.7556 1.78829 15.5853 1.70312 15.3298 1.70312H6.81319C5.87636 1.70312 5.10986 2.46962 5.10986 3.40645V23.8463C5.10986 24.7832 5.87636 25.5497 6.81319 25.5497H20.4398C21.3766 25.5497 22.1431 24.7832 22.1431 23.8463V8.51642C22.1431 8.26093 22.0579 8.09059 21.8876 7.92026ZM15.3298 3.74711L20.0991 8.51642H15.3298V3.74711ZM20.4398 23.8463H6.81319V3.40645H13.6265V8.51642C13.6265 9.45325 14.393 10.2197 15.3298 10.2197H20.4398V23.8463Z" fill="#820000"/>
<path d="M8.5166 18.7369H18.7366V20.4403H8.5166V18.7369ZM8.5166 13.627H18.7366V15.3303H8.5166V13.627Z" fill="#820000"/>
</svg>
