<svg width="30" height="30" viewBox="0 0 30 30" fill="none" xmlns="http://www.w3.org/2000/svg">
<path d="M21.75 28.75V21.3378C21.7496 21.0127 21.6813 20.6909 21.5491 20.3908C21.4169 20.0907 21.2233 19.8181 20.9795 19.5887C20.7356 19.3592 20.4463 19.1775 20.128 19.0537C19.8098 18.93 19.4688 18.8667 19.1246 18.8676H10.3754C10.0312 18.8667 9.69025 18.93 9.37197 19.0537C9.05369 19.1775 8.76436 19.3592 8.52053 19.5887C8.27669 19.8181 8.08313 20.0907 7.95092 20.3908C7.81871 20.6909 7.75043 21.0127 7.75 21.3378V28.75M21.75 1.19335V4.86757C21.7496 5.19263 21.6813 5.51443 21.5491 5.81455C21.4169 6.11468 21.2233 6.38724 20.9795 6.61667C20.7356 6.84609 20.4463 7.02786 20.128 7.1516C19.8098 7.27534 19.4688 7.3386 19.1246 7.33779H10.3754C10.0312 7.3386 9.69025 7.27534 9.37197 7.1516C9.05369 7.02786 8.76436 6.84609 8.52053 6.61667C8.27669 6.38724 8.08313 6.11468 7.95092 5.81455C7.81871 5.51443 7.75043 5.19263 7.75 4.86757V0.750016M21.75 1.19335C21.0669 0.90119 20.3257 0.750047 19.5759 0.750016H7.75M21.75 1.19335C22.3166 1.43602 22.8387 1.77513 23.2884 2.19668L27.2116 5.89112C27.6988 6.34895 28.0855 6.89311 28.3495 7.49239C28.6134 8.09167 28.7496 8.73427 28.75 9.38334V23.8064C28.7496 24.4567 28.6134 25.1005 28.3493 25.701C28.0851 26.3015 27.6982 26.8469 27.2107 27.3061C26.7232 27.7652 26.1445 28.1291 25.508 28.3769C24.8714 28.6246 24.1893 28.7514 23.5008 28.75H6.00082C5.31231 28.7516 4.63022 28.625 3.99356 28.3775C3.3569 28.1299 2.77817 27.7662 2.29048 27.3072C1.80278 26.8482 1.4157 26.3029 1.15137 25.7024C0.887038 25.102 0.750647 24.4583 0.75 23.808V5.69045C0.750864 5.04033 0.887414 4.39673 1.15184 3.79648C1.41627 3.19623 1.80339 2.6511 2.29106 2.19225C2.77873 1.73341 3.35739 1.36986 3.99394 1.12239C4.63049 0.874915 5.31245 0.74838 6.00082 0.750016H7.75" stroke="white" stroke-width="1.5" stroke-linecap="round" stroke-linejoin="round"/>
</svg>
