<svg width="40" height="40" viewBox="0 0 40 40" fill="none" xmlns="http://www.w3.org/2000/svg">
<path d="M8.16642 4.8999H29.399C30.6985 4.8999 31.9448 5.41613 32.8637 6.33503C33.7826 7.25392 34.2988 8.50021 34.2988 9.79972V31.0323C34.2988 32.3318 33.7826 33.5781 32.8637 34.497C31.9448 35.4159 30.6985 35.9321 29.399 35.9321H8.16642C6.86691 35.9321 5.62062 35.4159 4.70173 34.497C3.78283 33.5781 3.2666 32.3318 3.2666 31.0323V9.79972C3.2666 8.50021 3.78283 7.25392 4.70173 6.33503C5.62062 5.41613 6.86691 4.8999 8.16642 4.8999ZM8.16642 6.53318C7.30008 6.53318 6.46922 6.87733 5.85662 7.48992C5.24403 8.10252 4.89987 8.93338 4.89987 9.79972V28.7294L11.9066 21.7063L15.9898 25.7895L24.1562 17.6231L32.6655 26.1325V9.79972C32.6655 8.93338 32.3214 8.10252 31.7088 7.48992C31.0962 6.87733 30.2653 6.53318 29.399 6.53318H8.16642ZM15.9898 28.1087L11.9066 24.0255L4.89987 31.0323C4.89987 31.8986 5.24403 32.7295 5.85662 33.3421C6.46922 33.9547 7.30008 34.2988 8.16642 34.2988H29.399C30.2653 34.2988 31.0962 33.9547 31.7088 33.3421C32.3214 32.7295 32.6655 31.8986 32.6655 31.0323V28.4354L24.1562 19.9423L15.9898 28.1087ZM12.2496 9.79972C13.3325 9.79972 14.3711 10.2299 15.1369 10.9957C15.9026 11.7614 16.3328 12.8 16.3328 13.8829C16.3328 14.9658 15.9026 16.0044 15.1369 16.7702C14.3711 17.5359 13.3325 17.9661 12.2496 17.9661C11.1667 17.9661 10.1281 17.5359 9.36236 16.7702C8.59661 16.0044 8.16642 14.9658 8.16642 13.8829C8.16642 12.8 8.59661 11.7614 9.36236 10.9957C10.1281 10.2299 11.1667 9.79972 12.2496 9.79972ZM12.2496 11.433C11.5998 11.433 10.9767 11.6911 10.5173 12.1506C10.0578 12.61 9.79969 13.2331 9.79969 13.8829C9.79969 14.5327 10.0578 15.1558 10.5173 15.6153C10.9767 16.0747 11.5998 16.3328 12.2496 16.3328C12.8994 16.3328 13.5225 16.0747 13.982 15.6153C14.4414 15.1558 14.6995 14.5327 14.6995 13.8829C14.6995 13.2331 14.4414 12.61 13.982 12.1506C13.5225 11.6911 12.8994 11.433 12.2496 11.433Z" fill="#820000"/>
</svg>
